<svg xmlns="http://www.w3.org/2000/svg" version="1.1" xmlns:xlink="http://www.w3.org/1999/xlink" xmlns:svgjs="http://svgjs.dev/svgjs" viewBox="0 0 900 800"><defs><linearGradient x1="50%" y1="0%" x2="50%" y2="100%" id="ssscribble-grad"><stop stop-color="hsl(206, 75%, 49%)" stop-opacity="0" offset="0%"></stop><stop stop-color="hsl(331, 90%, 56%)" stop-opacity="1" offset="100%"></stop></linearGradient></defs><g fill="none" stroke-width="1.5" stroke="url(#ssscribble-grad)" stroke-linecap="round"><path d="M960.89 174.45C1058.1 207.31 1098.41 237.99 1074.39 271.39 996.09 311.36 883.39 365.9 765.08 443.68 663.02 536.33 596.01 652.2 568.99 777.46 581.57 879.34 620.9 941.49 671.63 934.37 730.64 862.12 778.48 741.07 808.61 624.76 827.24 584.99 826.08 651.59 809.35 813.58 783.62 989.66 749.57 1085.75 712.68 1034.91 673.38 872.57 635.99 702.86 603.13 652.85 570.27 767.58 543.49 954.58 520.83 1078.43 495.74 1062.01 470.01 915.45 438.79 733.76 398.57 611.15 345.62 603.61 276.35 690.6 195.56 824.46 100.55 927.97 -1.52 961.24 -95.32 920.53 -173.61 820.66 -220.41 698.51 -227.6 569.56 -190.06 464.49 -112.09 389.16 -17.87 334.42 76.11 300.19 141.73 274.48 153.08 255.25 106.1 231.84 8.89 198.98 -113.14 166.12 -218.74 125.37 -279.15 82.62 -284.04 46.36 -230.06 20.81 -134.66 18.59 -18.02 36.97 94.72 87.91 184.59 166.21 242.99 237.72 266.16 290.43 261.09 288.09 230.84 211.77 191.32 69.3 153.85 -98.77 114.76 -219.98 89.03 -241.94 78.56 -143.43 73.55 14.15 82.08 142.03 101.19 145.8 122.56 9.29 150.54 -184.36 183.4 -299.12 216.26 -249.16 252.45 -72.79 293.05 102.23 335.91 165.79 387.16 88.42 449.12 -63.55 516.54 -201.47 596.38 -238.63 686.12 -164.66 774.24 -14.14 860.93 145.86 934.25 261.2 982.38 311.4 998.18 296.44 973.99 245.22 918.34 170.61 835.07 108.85 742.52 73.14 671.2 52.3 635.92 57.53 653.5 79.53 726.59 108.11 838.85 141.59 960.89 174.45Q960.89 174.45 960.89 174.45" opacity="0.44"></path><path d="M892.89 434.65C978.95 462.82 1024.53 507.5 1022.92 565.85 978.27 622.4 898.68 687.6 801.16 752.21 699.52 801.87 609.9 832.85 542.12 830.92 499.74 797.55 483.29 727.82 487.07 634.2 509.77 553.82 539.88 505.74 569.5 521.62 602.6 609.97 626.91 753.2 640 905.03 650.68 1002.69 649.99 1004.54 638.93 901.84 626.58 748.73 605.99 617.67 577.83 584.85 549.66 675.21 515.25 831.97 474.48 968.18 432.42 1021.23 381.87 963.35 322.37 828.86 260.48 672.16 189.78 555.94 113.26 511.82 40.24 543.42 -30.3 624.69 -89.91 717.47 -130.62 803.2 -147.55 849.82 -134.51 854.05 -96.06 823.26 -31.69 765.1 49.29 696.25 126.16 616.78 189.72 543.77 223.5 484 214.24 424.2 162.95 379.46 76.89 351.29 -27.52 323.12 -122.71 312.85 -189.12 319.53 -219.02 326.17 -204.04 347.95 -150.61 378.61 -68.68 398.64 27.79 410.43 123.74 397.82 211.67 350.19 281.01 263.14 329.18 140.51 354.42 -75.54 314.96 211.75 318.85 168.79 324.87 21.73 341.64 -140.72 369.81 -231.12 397.98 -198.34 436.21 -61.58 483.31 102.39 530.4 215.98 585.92 230.18 647.41 153.18 706.29 22 766.62 -95.97 822.48 -155 866.78 -141.57 896.99 -60.09 906.18 57.2 894.93 187.73 858.98 297.91 800.39 374.69 733.76 420.03 662.54 435.43 601.25 434.59 568.47 418.79 569.52 404.83 610.29 401.4 687.57 396.17 788.47 406.48 892.89 434.65Q892.89 434.65 892.89 434.65" opacity="0.59"></path><path d="M824.93 607.23C922.1 638.97 921.13 655.6 832.4 626.61 752.76 596.83 669.53 551.89 591.42 497.74 521.47 453.57 465.71 420.18 425.08 413.51 398.52 445.49 384.31 518.43 378.45 627.85 381.33 749.94 386.43 862.81 389.89 933.2 396.27 938.79 397.33 873.84 391.07 754.92 385.25 628.42 371.04 535.55 347.57 516.86 324.1 584.99 292.47 707.68 254.03 835.07 216.02 927.04 172.26 948.32 125.2 898.02 81.07 793.29 37.32 666.68 -1.74 551.85 -41.8 448.16 -31.91 496.7 27.55 578.89 81.22 634.93 143.4 674.28 205.83 694.84 270.68 704.87 244.48 661.03 144.93 626.7 58.24 603.23 -23.85 579.1 -89.24 552.1 -133.61 521.79 -148.01 482.64 -133.14 430.15 -93.24 368.92 -33.01 290.91 38.78 198.69 117.74 107.68 194.96 19.28 264.78 -49.55 327.73 -82.76 379.08 -71.91 419.24 -12 450.76 78.37 474.28 183.93 492.87 271.46 506.83 304.55 520.13 269.91 535.31 168.88 549.33 32.44 567.54 -95 591.01 -163.13 614.48 -144.44 642.1 -46.82 672.35 88.73 701.43 216.71 730.84 295.02 757.55 306.63 779.64 253.45 794.78 161.63 799.44 63.98 795.46 -20.99 777.81 -66.1 745.63 -67.32 706.57 -29.88 657.18 37.2 602.67 117.54 555.3 207.87 516.12 291.47 493.42 361.92 495.74 427.3 523.49 478.57 576.92 517.91 651.35 554.46 738.21 583.75 824.89 607.22Q824.93 607.23 824.93 607.23" opacity="0.92"></path><path d="M756.92 255.91C839.47 279.44 881.86 289.67 840.83 289.38 793.81 296.76 737.03 311.93 675.85 340.62 611.74 384 550.15 445.66 494.11 525.06 442.18 611.83 397.8 703.33 360.93 786.33 329.13 845.05 303.15 870.67 281.47 853.51 262.75 797.75 245.82 708.91 229.24 605 213.48 514.9 196.49 456.7 177.71 448.87 158.93 497.29 139.25 585.31 119.6 688.18 92.15 819.48 56.38 828.42 56.77 717.51 64.7 621.68 82.13 529.31 109.44 451.22 140.87 388.59 180.2 347.56 224.75 325.07 266.39 318.34 306.33 321.8 339.58 328.72 358.93 341.75 364.08 351 352.06 352.62 321.15 355.23 273.6 347.88 212.92 329.11 143.98 310.33 77.02 281 18.72 242.99 -29.64 205.95 -60.83 162.54 -73.56 116.97 -69.99 77.5 -49.39 43.13 -15.38 20.91 29.61 14.46 81.66 28.53 136.36 66.55 194.05 120.03 249.57 190.14 300.56 266.42 350.15 328.81 394.03 369.9 431.85 375.34 467.87 337.79 498.87 260.47 525.24 155.23 550.96 45.11 573.23 -46.7 592.01 -95.12 610.79 -87.29 625.19 -25.29 634.88 72.05 643.92 183.21 647.09 282.73 643.62 352.26 638.34 383.17 625.38 374.4 604.74 335.23 582.69 271.78 554.13 202.55 521.05 140.39 490.95 85.59 461.17 50.89 435.72 36.46 421.25 36.7 417.49 52.46 427.68 77.62 454.16 110.25 496.03 144.83 551.64 176.59 617.18 209.96 687.94 237.12 756.88 255.9Q756.92 255.91 756.92 255.91" opacity="0.85"></path><path d="M722.88 173.13C820.09 205.99 856.75 242.42 832 298.07 760.25 374.16 659.56 494.32 557.7 645.89 457.19 771.91 375.57 833.92 315.28 773.69 262.12 626.44 220.59 464.83 187.73 414.86 154.87 529.62 133.78 708.83 130 823.41 133.34 822.95 163.68 710.59 221.12 563.51 279.9 418 345.74 321.54 393.41 268.95 394.07 239.85 344.09 218.41 246.88 185.55 124.84 152.69 24.83 111.52 -27.48 83.67 -33.79 79.31 10.06 124.49 82 226.92 173.02 330.93 262.84 408.44 336.78 384.81 409.54 246.15 464.17 53.62 497.03 -61.13 529.9 -11.16 537.87 163.76 522.06 335.09 505.07 419.41 466.53 392.26 418.59 309.31 389.72 200.8 380.71 131.93 411.11 112.79 487.52 114.08 600.84 140.27 722.88 173.13Q722.88 173.13 722.88 173.13" opacity="0.54"></path><path d="M688.93 268.77C774.97 296.94 817.02 353.8 812.86 438.08 772.01 525.55 702.17 634.55 622.93 735.08 536.3 789.09 458.12 774.56 396.32 674.37 336.97 537.93 292.25 413.68 264.09 380.86 235.92 471.22 226.97 621.06 237.51 744.37 250.5 802.05 284.72 767.79 334.43 677.78 376.76 555.23 416.72 442.46 436.93 360.24 420.44 287.23 366.97 238.9 280.93 210.73 176.5 182.56 86.32 177.24 28.71 201.43 1.02 234.84 12.58 303.64 51.33 389.28 109.28 442.37 174.77 446.77 233.81 368.45 295.4 224.51 343.5 63.26 371.67 -27.12 399.84 5.65 405.42 141.31 392.63 298.4 371.64 441.46 347.15 350.45 404.64 279.26 482.88 243.79 584.47 240.6 688.89 268.76Q688.93 268.77 688.93 268.77" opacity="0.67"></path><path d="M654.93 467.63C728.77 491.1 772.19 540.69 782.82 606 767.72 663.78 727.94 718.96 675.71 746.52 613.31 735.52 551.6 672.9 499.51 564.07 446.75 453.05 406.41 365.55 382.94 346.86 359.46 414.99 355.09 531.93 367.17 645.54 378.58 732.95 403.66 760.85 435.3 737.59 456.76 677.29 471.65 600.59 469.54 531.96 441.7 459.8 388.77 408.27 314.93 384.8 228.24 361.33 150.47 368.13 93.78 399.62 48.19 447.61 97.19 463.28 153.99 332.28 195.97 201.47 231.72 75.02 255.19 6.87 278.67 25.53 287.64 122.54 286.34 250.76 288.73 376.8 288.34 464.33 293.47 506.1 313.43 509.31 350.18 490.75 407.04 473.65 480.93 449.02 568.21 444.15 654.89 467.62Q654.93 467.63 654.93 467.63" opacity="0.29"></path><path d="M586.93 591.16C672.97 619.32 707.91 598.61 699.09 515.82 668.96 422.38 625.97 311.68 597.81 278.86 569.64 369.24 561.63 505.21 554.84 593.34 526.74 651.93 468.97 650.63 382.93 622.47 278.49 594.3 198.39 544.59 162.11 449.09 141.39 324.04 152.12 165.24 180.29 74.86 208.46 107.68 248.72 241.21 306.36 371.57 379.56 491.28 482.49 562.99 586.93 591.16Q586.93 591.16 586.93 591.16" opacity="0.38"></path><path d="M552.89 418.64C660.14 456.2 664.21 314.81 626.66 244.85 589.1 385.71 524.14 536.65 416.89 499.09 277.48 461.54 207.7 249.71 245.26 108.85 282.81 178.81 413.48 381.09 552.89 418.64Q552.89 418.64 552.89 418.64" opacity="0.84"></path></g></svg>